<svg xmlns="http://www.w3.org/2000/svg" width="512" height="512" viewBox="0 0 512 512" role="img" aria-label="Tạo công văn">
<rect x="0" y="0" width="512" height="512" rx="96" fill="white"/>
<rect x="32" y="32" width="448" height="448" rx="80" fill="#F4F7FB"/>

<path d="M150 100 H290 L362 172 V352 A28 28 0 0 1 334 380 H150 A28 28 0 0 1 122 352 V128 A28 28 0 0 1 150 100 Z" fill="white" stroke="#3B455A" stroke-width="10"/>
<path d="M290 100 V172 H362" fill="none" stroke="#3B455A" stroke-width="10"/>
<line x1="164" y1="220" x2="320" y2="220" stroke="#CBD5E1" stroke-width="10" stroke-linecap="round"/>
<line x1="164" y1="258" x2="320" y2="258" stroke="#CBD5E1" stroke-width="10" stroke-linecap="round"/>
<line x1="164" y1="296" x2="270" y2="296" stroke="#CBD5E1" stroke-width="10" stroke-linecap="round"/>
<circle cx="120" cy="336" r="52" fill="#24C36B"/>
<path d="M120 308 V364 M92 336 H148" stroke="white" stroke-width="18" stroke-linecap="round"/>
<path d="M320 330 L390 260" stroke="#3B455A" stroke-width="16" stroke-linecap="round"/>
<path d="M390 260 L410 280 L340 350 L314 356 Z" fill="#FBBF24" stroke="#3B455A" stroke-width="8" stroke-linejoin="round"/>

</svg>