<svg xmlns="http://www.w3.org/2000/svg" width="512" height="512" viewBox="0 0 512 512" role="img" aria-label="Hợp đồng">
<rect x="0" y="0" width="512" height="512" rx="96" fill="white"/>
<rect x="32" y="32" width="448" height="448" rx="80" fill="#F4F7FB"/>

<path d="M152 100 H298 L360 162 V356 A28 28 0 0 1 332 384 H152 A28 28 0 0 1 124 356 V128 A28 28 0 0 1 152 100 Z" fill="white" stroke="#3B455A" stroke-width="10"/>
<path d="M298 100 V162 H360" fill="none" stroke="#3B455A" stroke-width="10"/>
<line x1="164" y1="212" x2="316" y2="212" stroke="#94A3B8" stroke-width="12" stroke-linecap="round"/>
<line x1="164" y1="252" x2="316" y2="252" stroke="#94A3B8" stroke-width="12" stroke-linecap="round"/>
<line x1="164" y1="292" x2="258" y2="292" stroke="#94A3B8" stroke-width="12" stroke-linecap="round"/>
<circle cx="334" cy="334" r="42" fill="#EF4444" opacity="0.18"/>
<path d="M334 292 V376" stroke="#EF4444" stroke-width="18" stroke-linecap="round"/>
<path d="M300 326 H368" stroke="#EF4444" stroke-width="18" stroke-linecap="round"/>
<path d="M330 376 C330 410, 294 408, 282 386" fill="none" stroke="#EF4444" stroke-width="14" stroke-linecap="round"/>
<path d="M338 376 C338 410, 374 408, 386 386" fill="none" stroke="#EF4444" stroke-width="14" stroke-linecap="round"/>

</svg>