<svg xmlns="http://www.w3.org/2000/svg" width="512" height="512" viewBox="0 0 512 512" role="img" aria-label="Tra cứu">
<rect x="0" y="0" width="512" height="512" rx="96" fill="white"/>
<rect x="32" y="32" width="448" height="448" rx="80" fill="#F4F7FB"/>

<path d="M152 106 H298 L360 168 V352 A28 28 0 0 1 332 380 H152 A28 28 0 0 1 124 352 V134 A28 28 0 0 1 152 106 Z" fill="white" stroke="#3B455A" stroke-width="10" opacity="0.9"/>
<path d="M298 106 V168 H360" fill="none" stroke="#3B455A" stroke-width="10"/>
<circle cx="292" cy="296" r="66" fill="white" stroke="#3B455A" stroke-width="10"/>
<line x1="338" y1="344" x2="392" y2="398" stroke="#3B455A" stroke-width="16" stroke-linecap="round"/>
<circle cx="292" cy="296" r="34" fill="#8B5CF6" opacity="0.15"/>
<path d="M292 266 V326 M262 296 H322" stroke="#8B5CF6" stroke-width="14" stroke-linecap="round"/>

</svg>