<svg xmlns="http://www.w3.org/2000/svg" width="512" height="512" viewBox="0 0 512 512" role="img" aria-label="Quản lý xe">
<rect x="0" y="0" width="512" height="512" rx="96" fill="white"/>
<rect x="32" y="32" width="448" height="448" rx="80" fill="#F4F7FB"/>

<path d="M146 268 L178 188 H334 L366 268" fill="white" stroke="#3B455A" stroke-width="10" stroke-linejoin="round"/>
<rect x="122" y="252" width="268" height="86" rx="22" fill="white" stroke="#3B455A" stroke-width="10"/>
<circle cx="184" cy="348" r="30" fill="#14B8A6" stroke="#3B455A" stroke-width="10"/>
<circle cx="328" cy="348" r="30" fill="#14B8A6" stroke="#3B455A" stroke-width="10"/>
<rect x="184" y="206" width="76" height="42" rx="12" fill="#14B8A6" opacity="0.25"/>
<rect x="266" y="206" width="56" height="42" rx="12" fill="#14B8A6" opacity="0.25"/>
<path d="M384 166 h36 a18 18 0 0 1 18 18 v112 a18 18 0 0 1 -18 18 h-24" fill="none" stroke="#14B8A6" stroke-width="14" stroke-linecap="round"/>
<path d="M402 216 h36" stroke="#14B8A6" stroke-width="14" stroke-linecap="round"/>

</svg>