<svg xmlns="http://www.w3.org/2000/svg" width="512" height="512" viewBox="0 0 512 512" role="img" aria-label="Portal">
<rect x="0" y="0" width="512" height="512" rx="96" fill="white"/>
<rect x="32" y="32" width="448" height="448" rx="80" fill="#F4F7FB"/>

<rect x="94" y="118" width="324" height="220" rx="26" fill="white" stroke="#3B455A" stroke-width="10"/>
<line x1="94" y1="172" x2="418" y2="172" stroke="#3B455A" stroke-width="10"/>
<circle cx="128" cy="146" r="8" fill="#6366F1"/>
<circle cx="156" cy="146" r="8" fill="#CBD5E1"/>
<circle cx="184" cy="146" r="8" fill="#CBD5E1"/>
<rect x="124" y="206" width="88" height="94" rx="16" fill="#6366F1" opacity="0.15"/>
<rect x="228" y="206" width="70" height="38" rx="12" fill="#6366F1" opacity="0.25"/>
<rect x="312" y="206" width="70" height="38" rx="12" fill="#6366F1" opacity="0.25"/>
<rect x="228" y="262" width="154" height="38" rx="12" fill="#6366F1" opacity="0.15"/>
<path d="M256 364 c56 0 106 24 132 62" fill="none" stroke="#6366F1" stroke-width="16" stroke-linecap="round"/>
<path d="M256 364 c-56 0 -106 24 -132 62" fill="none" stroke="#6366F1" stroke-width="16" stroke-linecap="round"/>
<circle cx="256" cy="352" r="24" fill="#6366F1"/>

</svg>